<?xml version="1.0" encoding="UTF-8" standalone="no"?>
<svg
   xmlns="http://www.w3.org/2000/svg"
   xmlns:xlink="http://www.w3.org/1999/xlink"
   version="1.1"
   width="136"
   height="132"
   id="audiophil-logo">
  <path
     d="M 58.5625,7.28125 L 58.5625,93.90625 C 56.240792,91.051098 52.366655,89.468749 47.34375,89.46875 C 35.788549,89.46875 25.687501,98.962175 25.6875,109.40625 C 25.6875,117.39335 31.064557,121.375 39.34375,121.375 C 51.838897,121.375 60.944982,111.57949 61,101.5 C 61.000167,101.46943 61,101.43683 61,101.40625 L 61,31.3125 C 73.3039,37.762257 82.164464,44.19391 86.9375,53.53125 C 91.770411,62.985732 88.712629,76.07575 75.5625,88.03125 C 75.225623,89.275321 75.768797,89.91672 76.71875,89.875 C 100.05919,69.824202 96.283715,44.69325 75.0625,27.40625 C 68.147192,21.772979 63.115006,14.24255 61,7.28125 L 58.5625,7.28125 z "
     fill="black"
     stroke="white"
     stroke-width="0.5px"
     fill-opacity="1"
     fill-rule="evenodd"
     stroke-linecap="round"
     stroke-linejoin="round"
     stroke-miterlimit="4"
     stroke-opacity="1"
     /> 
</svg>
